<svg width="140" height="160" viewBox="0 0 140 160" fill="none" xmlns="http://www.w3.org/2000/svg">
<g filter="url(#filter0_d_17_5000)">
<rect x="30" y="18" width="80" height="100" rx="18" fill="white"/>
</g>
<circle cx="70" cy="53" r="18" fill="#BBEFFF"/>
<g clip-path="url(#clip0_17_5000)">
<path d="M66.1602 57.6125V56.06M70.0002 57.6125V54.5075M73.8402 57.6125V52.9475M73.8402 48.3875L73.4952 48.7925C71.5804 51.0281 69.0165 52.6115 66.1602 53.3225" stroke="#00AAE0" stroke-width="2" stroke-linecap="round"/>
<path d="M71.6426 48.3875H73.8401V50.5775" stroke="#00AAE0" stroke-width="2" stroke-linecap="round" stroke-linejoin="round"/>
<path d="M67.75 60.5H72.25C76 60.5 77.5 59 77.5 55.25V50.75C77.5 47 76 45.5 72.25 45.5H67.75C64 45.5 62.5 47 62.5 50.75V55.25C62.5 59 64 60.5 67.75 60.5Z" stroke="#00AAE0" stroke-width="2" stroke-linecap="round" stroke-linejoin="round"/>
</g>
<path d="M59.9823 80.87C60.8423 80.87 61.5556 81.0833 62.1223 81.51C62.6889 81.93 63.0523 82.5 63.2123 83.22H61.7323C61.5923 82.9 61.3689 82.6467 61.0623 82.46C60.7623 82.2667 60.4056 82.17 59.9923 82.17C59.5856 82.17 59.2256 82.2633 58.9123 82.45C58.5989 82.6367 58.3556 82.9033 58.1823 83.25C58.0089 83.5967 57.9223 84.0033 57.9223 84.47C57.9223 85.21 58.1189 85.7867 58.5123 86.2C58.9123 86.6133 59.4556 86.82 60.1423 86.82C60.6489 86.82 61.0823 86.67 61.4423 86.37C61.8089 86.07 62.0456 85.6533 62.1523 85.12H59.7623V84.11H63.3323V85.47C63.2323 85.9367 63.0356 86.3667 62.7423 86.76C62.4556 87.1533 62.0756 87.47 61.6023 87.71C61.1356 87.9433 60.5989 88.06 59.9923 88.06C59.2989 88.06 58.6856 87.91 58.1523 87.61C57.6256 87.3033 57.2156 86.88 56.9223 86.34C56.6356 85.7933 56.4923 85.17 56.4923 84.47C56.4923 83.77 56.6356 83.15 56.9223 82.61C57.2156 82.0633 57.6256 81.6367 58.1523 81.33C58.6789 81.0233 59.2889 80.87 59.9823 80.87ZM65.798 83.52C66.0047 83.1667 66.278 82.89 66.618 82.69C66.958 82.4833 67.338 82.38 67.758 82.38V83.89H67.348C66.3147 83.89 65.798 84.37 65.798 85.33V88H64.388V82.46H65.798V83.52ZM71.0984 82.39C71.6384 82.39 72.1218 82.5033 72.5484 82.73C72.9818 82.9567 73.3218 83.2867 73.5684 83.72C73.8151 84.1467 73.9384 84.65 73.9384 85.23C73.9384 85.81 73.8151 86.3133 73.5684 86.74C73.3218 87.1667 72.9818 87.4967 72.5484 87.73C72.1218 87.9567 71.6384 88.07 71.0984 88.07C70.5584 88.07 70.0718 87.9567 69.6384 87.73C69.2118 87.4967 68.8751 87.1667 68.6284 86.74C68.3818 86.3133 68.2584 85.81 68.2584 85.23C68.2584 84.65 68.3818 84.1467 68.6284 83.72C68.8751 83.2867 69.2118 82.9567 69.6384 82.73C70.0718 82.5033 70.5584 82.39 71.0984 82.39ZM71.0984 83.61C70.7051 83.61 70.3718 83.75 70.0984 84.03C69.8251 84.3033 69.6884 84.7033 69.6884 85.23C69.6884 85.7567 69.8251 86.16 70.0984 86.44C70.3718 86.7133 70.7051 86.85 71.0984 86.85C71.4918 86.85 71.8251 86.7133 72.0984 86.44C72.3718 86.16 72.5084 85.7567 72.5084 85.23C72.5084 84.7033 72.3718 84.3033 72.0984 84.03C71.8251 83.75 71.4918 83.61 71.0984 83.61ZM82.8649 82.46L81.3749 88H79.8149L78.6249 83.97L77.4049 88H75.8449L74.3649 82.46H75.7749L76.6749 86.74L77.9049 82.46H79.3949L80.6349 86.74L81.5449 82.46H82.8649ZM51.7363 95.36C52.1629 95.4467 52.5029 95.65 52.7563 95.97C53.0163 96.2833 53.1463 96.6533 53.1463 97.08C53.1463 97.6733 52.9463 98.1433 52.5463 98.49C52.1529 98.83 51.5796 99 50.8263 99H47.7963V91.94H50.7663C51.4796 91.94 52.0263 92.0967 52.4063 92.41C52.7929 92.7233 52.9863 93.1633 52.9863 93.73C52.9863 94.17 52.8696 94.53 52.6363 94.81C52.4096 95.09 52.1096 95.2733 51.7363 95.36ZM49.2063 94.9H50.4763C50.8296 94.9 51.0963 94.8233 51.2763 94.67C51.4629 94.51 51.5563 94.2833 51.5563 93.99C51.5563 93.6967 51.4663 93.47 51.2863 93.31C51.1063 93.15 50.8296 93.07 50.4563 93.07H49.2063V94.9ZM50.5463 97.85C50.9196 97.85 51.2063 97.77 51.4063 97.61C51.6063 97.4433 51.7063 97.2033 51.7063 96.89C51.7063 96.5767 51.6029 96.3367 51.3963 96.17C51.1963 95.9967 50.9096 95.91 50.5363 95.91H49.2063V97.85H50.5463ZM59.4341 93.46V99H58.0241V97.88C57.8775 98.2533 57.6341 98.5467 57.2941 98.76C56.9608 98.9667 56.5741 99.07 56.1341 99.07C55.4941 99.07 54.9841 98.86 54.6041 98.44C54.2241 98.02 54.0341 97.4333 54.0341 96.68V93.46H55.4341V96.52C55.4341 96.96 55.5475 97.3033 55.7741 97.55C56.0008 97.79 56.3075 97.91 56.6941 97.91C57.1008 97.91 57.4241 97.78 57.6641 97.52C57.9041 97.26 58.0241 96.8867 58.0241 96.4V93.46H59.4341ZM62.6262 93.39C63.2995 93.39 63.8395 93.56 64.2462 93.9C64.6528 94.24 64.9062 94.6933 65.0062 95.26H63.6862C63.6328 94.9933 63.5128 94.78 63.3262 94.62C63.1395 94.46 62.8962 94.38 62.5962 94.38C62.3562 94.38 62.1695 94.4367 62.0362 94.55C61.9028 94.6633 61.8362 94.8167 61.8362 95.01C61.8362 95.1633 61.8895 95.2867 61.9962 95.38C62.1028 95.4733 62.2362 95.5467 62.3962 95.6C62.5562 95.6533 62.7862 95.7167 63.0862 95.79C63.5062 95.8833 63.8462 95.9833 64.1062 96.09C64.3728 96.19 64.5995 96.3533 64.7862 96.58C64.9795 96.8 65.0762 97.1 65.0762 97.48C65.0762 97.9533 64.8895 98.3367 64.5162 98.63C64.1495 98.9233 63.6528 99.07 63.0262 99.07C62.3062 99.07 61.7295 98.91 61.2962 98.59C60.8628 98.2633 60.5995 97.8 60.5062 97.2H61.8562C61.8895 97.4733 62.0095 97.69 62.2162 97.85C62.4228 98.0033 62.6928 98.08 63.0262 98.08C63.2662 98.08 63.4495 98.0233 63.5762 97.91C63.7028 97.79 63.7662 97.6367 63.7662 97.45C63.7662 97.29 63.7095 97.16 63.5962 97.06C63.4895 96.96 63.3528 96.8833 63.1862 96.83C63.0262 96.7767 62.7962 96.7133 62.4962 96.64C62.0828 96.5467 61.7462 96.4533 61.4862 96.36C61.2328 96.26 61.0128 96.1033 60.8262 95.89C60.6462 95.6767 60.5562 95.3833 60.5562 95.01C60.5562 94.53 60.7395 94.14 61.1062 93.84C61.4728 93.54 61.9795 93.39 62.6262 93.39ZM65.9663 91.87C65.9663 91.6433 66.0463 91.46 66.2063 91.32C66.3663 91.1733 66.5763 91.1 66.8363 91.1C67.0963 91.1 67.3063 91.1733 67.4663 91.32C67.6263 91.46 67.7063 91.6433 67.7063 91.87C67.7063 92.09 67.6263 92.2733 67.4663 92.42C67.3063 92.56 67.0963 92.63 66.8363 92.63C66.5763 92.63 66.3663 92.56 66.2063 92.42C66.0463 92.2733 65.9663 92.09 65.9663 91.87ZM67.5363 93.46V99H66.1263V93.46H67.5363ZM72.1119 93.38C72.7519 93.38 73.2619 93.59 73.6419 94.01C74.0219 94.43 74.2119 95.02 74.2119 95.78V99H72.8119V95.94C72.8119 95.5 72.6985 95.16 72.4719 94.92C72.2452 94.6733 71.9352 94.55 71.5419 94.55C71.1419 94.55 70.8219 94.68 70.5819 94.94C70.3419 95.2 70.2219 95.5733 70.2219 96.06V99H68.8119V93.46H70.2219V94.57C70.3685 94.1967 70.6085 93.9067 70.9419 93.7C71.2819 93.4867 71.6719 93.38 72.1119 93.38ZM80.6625 96.02C80.6625 96.16 80.6458 96.32 80.6125 96.5H76.5525C76.5725 96.9933 76.7058 97.3567 76.9525 97.59C77.1992 97.8233 77.5058 97.94 77.8725 97.94C78.1992 97.94 78.4692 97.86 78.6825 97.7C78.9025 97.54 79.0425 97.3233 79.1025 97.05H80.5925C80.5192 97.4367 80.3625 97.7833 80.1225 98.09C79.8825 98.3967 79.5725 98.6367 79.1925 98.81C78.8192 98.9833 78.4025 99.07 77.9425 99.07C77.4025 99.07 76.9225 98.9567 76.5025 98.73C76.0825 98.4967 75.7558 98.1667 75.5225 97.74C75.2892 97.3133 75.1725 96.81 75.1725 96.23C75.1725 95.65 75.2892 95.1467 75.5225 94.72C75.7558 94.2867 76.0825 93.9567 76.5025 93.73C76.9225 93.5033 77.4025 93.39 77.9425 93.39C78.4892 93.39 78.9658 93.5033 79.3725 93.73C79.7858 93.9567 80.1025 94.27 80.3225 94.67C80.5492 95.0633 80.6625 95.5133 80.6625 96.02ZM79.2425 95.88C79.2625 95.4267 79.1425 95.0833 78.8825 94.85C78.6292 94.6167 78.3158 94.5 77.9425 94.5C77.5625 94.5 77.2425 94.6167 76.9825 94.85C76.7225 95.0833 76.5792 95.4267 76.5525 95.88H79.2425ZM83.5734 93.39C84.2468 93.39 84.7868 93.56 85.1934 93.9C85.6001 94.24 85.8534 94.6933 85.9534 95.26H84.6334C84.5801 94.9933 84.4601 94.78 84.2734 94.62C84.0868 94.46 83.8434 94.38 83.5434 94.38C83.3034 94.38 83.1168 94.4367 82.9834 94.55C82.8501 94.6633 82.7834 94.8167 82.7834 95.01C82.7834 95.1633 82.8368 95.2867 82.9434 95.38C83.0501 95.4733 83.1834 95.5467 83.3434 95.6C83.5034 95.6533 83.7334 95.7167 84.0334 95.79C84.4534 95.8833 84.7934 95.9833 85.0534 96.09C85.3201 96.19 85.5468 96.3533 85.7334 96.58C85.9268 96.8 86.0234 97.1 86.0234 97.48C86.0234 97.9533 85.8368 98.3367 85.4634 98.63C85.0968 98.9233 84.6001 99.07 83.9734 99.07C83.2534 99.07 82.6768 98.91 82.2434 98.59C81.8101 98.2633 81.5468 97.8 81.4534 97.2H82.8034C82.8368 97.4733 82.9568 97.69 83.1634 97.85C83.3701 98.0033 83.6401 98.08 83.9734 98.08C84.2134 98.08 84.3968 98.0233 84.5234 97.91C84.6501 97.79 84.7134 97.6367 84.7134 97.45C84.7134 97.29 84.6568 97.16 84.5434 97.06C84.4368 96.96 84.3001 96.8833 84.1334 96.83C83.9734 96.7767 83.7434 96.7133 83.4434 96.64C83.0301 96.5467 82.6934 96.4533 82.4334 96.36C82.1801 96.26 81.9601 96.1033 81.7734 95.89C81.5934 95.6767 81.5034 95.3833 81.5034 95.01C81.5034 94.53 81.6868 94.14 82.0534 93.84C82.4201 93.54 82.9268 93.39 83.5734 93.39ZM88.9836 93.39C89.6569 93.39 90.1969 93.56 90.6036 93.9C91.0103 94.24 91.2636 94.6933 91.3636 95.26H90.0436C89.9903 94.9933 89.8703 94.78 89.6836 94.62C89.4969 94.46 89.2536 94.38 88.9536 94.38C88.7136 94.38 88.5269 94.4367 88.3936 94.55C88.2603 94.6633 88.1936 94.8167 88.1936 95.01C88.1936 95.1633 88.2469 95.2867 88.3536 95.38C88.4603 95.4733 88.5936 95.5467 88.7536 95.6C88.9136 95.6533 89.1436 95.7167 89.4436 95.79C89.8636 95.8833 90.2036 95.9833 90.4636 96.09C90.7303 96.19 90.9569 96.3533 91.1436 96.58C91.3369 96.8 91.4336 97.1 91.4336 97.48C91.4336 97.9533 91.2469 98.3367 90.8736 98.63C90.5069 98.9233 90.0103 99.07 89.3836 99.07C88.6636 99.07 88.0869 98.91 87.6536 98.59C87.2203 98.2633 86.9569 97.8 86.8636 97.2H88.2136C88.2469 97.4733 88.3669 97.69 88.5736 97.85C88.7803 98.0033 89.0503 98.08 89.3836 98.08C89.6236 98.08 89.8069 98.0233 89.9336 97.91C90.0603 97.79 90.1236 97.6367 90.1236 97.45C90.1236 97.29 90.0669 97.16 89.9536 97.06C89.8469 96.96 89.7103 96.8833 89.5436 96.83C89.3836 96.7767 89.1536 96.7133 88.8536 96.64C88.4403 96.5467 88.1036 96.4533 87.8436 96.36C87.5903 96.26 87.3703 96.1033 87.1836 95.89C87.0036 95.6767 86.9136 95.3833 86.9136 95.01C86.9136 94.53 87.0969 94.14 87.4636 93.84C87.8303 93.54 88.3369 93.39 88.9836 93.39Z" fill="#0E1626"/>
<defs>
<filter id="filter0_d_17_5000" x="0" y="0" width="140" height="160" filterUnits="userSpaceOnUse" color-interpolation-filters="sRGB">
<feFlood flood-opacity="0" result="BackgroundImageFix"/>
<feColorMatrix in="SourceAlpha" type="matrix" values="0 0 0 0 0 0 0 0 0 0 0 0 0 0 0 0 0 0 127 0" result="hardAlpha"/>
<feOffset dy="12"/>
<feGaussianBlur stdDeviation="15"/>
<feComposite in2="hardAlpha" operator="out"/>
<feColorMatrix type="matrix" values="0 0 0 0 0.898438 0 0 0 0 0.914062 0 0 0 0 0.9375 0 0 0 1 0"/>
<feBlend mode="normal" in2="BackgroundImageFix" result="effect1_dropShadow_17_5000"/>
<feBlend mode="normal" in="SourceGraphic" in2="effect1_dropShadow_17_5000" result="shape"/>
</filter>
<clipPath id="clip0_17_5000">
<rect width="18" height="18" fill="white" transform="translate(61 44)"/>
</clipPath>
</defs>
</svg>
