<svg width="22" height="22" viewBox="0 0 22 22" fill="none" xmlns="http://www.w3.org/2000/svg">
<path d="M15.4102 2.99999C17.3502 2.99999 18.9102 4.56999 18.9102 6.49999C18.9102 8.38999 17.4102 9.92999 15.5402 9.99999C15.4538 9.98999 15.3666 9.98999 15.2802 9.99999M17.3402 19C18.0602 18.85 18.7402 18.56 19.3002 18.13C20.8602 16.96 20.8602 15.03 19.3002 13.86C18.7502 13.44 18.0802 13.16 17.3702 13M8.16021 9.86999C8.06021 9.85999 7.94021 9.85999 7.83021 9.86999C6.68242 9.83102 5.59486 9.34683 4.79784 8.51995C4.00083 7.69307 3.55696 6.58844 3.56021 5.43999C3.56021 2.98999 5.54022 0.99999 8.00022 0.99999C9.17645 0.978773 10.3129 1.42568 11.1597 2.2424C12.0064 3.05912 12.494 4.17875 12.5152 5.35499C12.5364 6.53123 12.0895 7.66771 11.2728 8.51444C10.4561 9.36117 9.33645 9.84877 8.16021 9.86999ZM3.16021 13.56C0.740215 15.18 0.740215 17.82 3.16021 19.43C5.91021 21.27 10.4202 21.27 13.1702 19.43C15.5902 17.81 15.5902 15.17 13.1702 13.56C10.4302 11.73 5.92021 11.73 3.16021 13.56Z" stroke="#493EF2" stroke-width="2" stroke-linecap="round" stroke-linejoin="round"/>
</svg>
