<svg width="190" height="120" viewBox="0 0 190 120" fill="none" xmlns="http://www.w3.org/2000/svg">
<g filter="url(#filter0_d_17_5008)">
<rect x="30" y="18" width="130" height="60" rx="18" fill="white"/>
</g>
<circle cx="64" cy="48" r="18" fill="#FFDBF1"/>
<g clip-path="url(#clip0_17_5008)">
<path d="M61.8252 48V46.89C61.8252 45.4575 62.8377 44.88 64.0752 45.5925L65.0352 46.1475L65.9952 46.7025C67.2327 47.415 67.2327 48.585 65.9952 49.2975L65.0352 49.8525L64.0752 50.4075C62.8377 51.12 61.8252 50.535 61.8252 49.11V48Z" stroke="#FF28A6" stroke-width="2" stroke-miterlimit="10" stroke-linecap="round" stroke-linejoin="round"/>
<path d="M64 55.5C68.1422 55.5 71.5 52.1422 71.5 48C71.5 43.8578 68.1422 40.5 64 40.5C59.8578 40.5 56.5 43.8578 56.5 48C56.5 52.1422 59.8578 55.5 64 55.5Z" stroke="#FF28A6" stroke-width="2" stroke-linecap="round" stroke-linejoin="round"/>
</g>
<path d="M94.83 38.87C95.71 38.87 96.44 39.0967 97.02 39.55C97.6 40.0033 97.9833 40.62 98.17 41.4H96.69C96.5367 41.02 96.2967 40.72 95.97 40.5C95.65 40.28 95.2633 40.17 94.81 40.17C94.4367 40.17 94.1 40.2633 93.8 40.45C93.5 40.6367 93.2667 40.9033 93.1 41.25C92.9333 41.5967 92.85 42.0033 92.85 42.47C92.85 42.93 92.9333 43.3333 93.1 43.68C93.2667 44.0267 93.5 44.2933 93.8 44.48C94.1 44.6667 94.4367 44.76 94.81 44.76C95.2633 44.76 95.65 44.65 95.97 44.43C96.2967 44.21 96.5367 43.91 96.69 43.53H98.17C97.9833 44.31 97.6 44.9267 97.02 45.38C96.44 45.8333 95.71 46.06 94.83 46.06C94.1567 46.06 93.56 45.91 93.04 45.61C92.5267 45.3033 92.1267 44.8767 91.84 44.33C91.56 43.7833 91.42 43.1633 91.42 42.47C91.42 41.77 91.56 41.1467 91.84 40.6C92.1267 40.0533 92.5267 39.63 93.04 39.33C93.5533 39.0233 94.15 38.87 94.83 38.87ZM101.788 40.39C102.328 40.39 102.811 40.5033 103.238 40.73C103.671 40.9567 104.011 41.2867 104.258 41.72C104.505 42.1467 104.628 42.65 104.628 43.23C104.628 43.81 104.505 44.3133 104.258 44.74C104.011 45.1667 103.671 45.4967 103.238 45.73C102.811 45.9567 102.328 46.07 101.788 46.07C101.248 46.07 100.761 45.9567 100.328 45.73C99.9012 45.4967 99.5646 45.1667 99.3179 44.74C99.0712 44.3133 98.9479 43.81 98.9479 43.23C98.9479 42.65 99.0712 42.1467 99.3179 41.72C99.5646 41.2867 99.9012 40.9567 100.328 40.73C100.761 40.5033 101.248 40.39 101.788 40.39ZM101.788 41.61C101.395 41.61 101.061 41.75 100.788 42.03C100.515 42.3033 100.378 42.7033 100.378 43.23C100.378 43.7567 100.515 44.16 100.788 44.44C101.061 44.7133 101.395 44.85 101.788 44.85C102.181 44.85 102.515 44.7133 102.788 44.44C103.061 44.16 103.198 43.7567 103.198 43.23C103.198 42.7033 103.061 42.3033 102.788 42.03C102.515 41.75 102.181 41.61 101.788 41.61ZM110.924 40.46V46H109.514V44.88C109.368 45.2533 109.124 45.5467 108.784 45.76C108.451 45.9667 108.064 46.07 107.624 46.07C106.984 46.07 106.474 45.86 106.094 45.44C105.714 45.02 105.524 44.4333 105.524 43.68V40.46H106.924V43.52C106.924 43.96 107.038 44.3033 107.264 44.55C107.491 44.79 107.798 44.91 108.184 44.91C108.591 44.91 108.914 44.78 109.154 44.52C109.394 44.26 109.514 43.8867 109.514 43.4V40.46H110.924ZM113.616 41.52C113.823 41.1667 114.096 40.89 114.436 40.69C114.776 40.4833 115.156 40.38 115.576 40.38V41.89H115.166C114.133 41.89 113.616 42.37 113.616 43.33V46H112.206V40.46H113.616V41.52ZM118.267 40.39C118.94 40.39 119.48 40.56 119.887 40.9C120.293 41.24 120.547 41.6933 120.647 42.26H119.327C119.273 41.9933 119.153 41.78 118.967 41.62C118.78 41.46 118.537 41.38 118.237 41.38C117.997 41.38 117.81 41.4367 117.677 41.55C117.543 41.6633 117.477 41.8167 117.477 42.01C117.477 42.1633 117.53 42.2867 117.637 42.38C117.743 42.4733 117.877 42.5467 118.037 42.6C118.197 42.6533 118.427 42.7167 118.727 42.79C119.147 42.8833 119.487 42.9833 119.747 43.09C120.013 43.19 120.24 43.3533 120.427 43.58C120.62 43.8 120.717 44.1 120.717 44.48C120.717 44.9533 120.53 45.3367 120.157 45.63C119.79 45.9233 119.293 46.07 118.667 46.07C117.947 46.07 117.37 45.91 116.937 45.59C116.503 45.2633 116.24 44.8 116.147 44.2H117.497C117.53 44.4733 117.65 44.69 117.857 44.85C118.063 45.0033 118.333 45.08 118.667 45.08C118.907 45.08 119.09 45.0233 119.217 44.91C119.343 44.79 119.407 44.6367 119.407 44.45C119.407 44.29 119.35 44.16 119.237 44.06C119.13 43.96 118.993 43.8833 118.827 43.83C118.667 43.7767 118.437 43.7133 118.137 43.64C117.723 43.5467 117.387 43.4533 117.127 43.36C116.873 43.26 116.653 43.1033 116.467 42.89C116.287 42.6767 116.197 42.3833 116.197 42.01C116.197 41.53 116.38 41.14 116.747 40.84C117.113 40.54 117.62 40.39 118.267 40.39ZM126.977 43.02C126.977 43.16 126.96 43.32 126.927 43.5H122.867C122.887 43.9933 123.02 44.3567 123.267 44.59C123.514 44.8233 123.82 44.94 124.187 44.94C124.514 44.94 124.784 44.86 124.997 44.7C125.217 44.54 125.357 44.3233 125.417 44.05H126.907C126.834 44.4367 126.677 44.7833 126.437 45.09C126.197 45.3967 125.887 45.6367 125.507 45.81C125.134 45.9833 124.717 46.07 124.257 46.07C123.717 46.07 123.237 45.9567 122.817 45.73C122.397 45.4967 122.07 45.1667 121.837 44.74C121.604 44.3133 121.487 43.81 121.487 43.23C121.487 42.65 121.604 42.1467 121.837 41.72C122.07 41.2867 122.397 40.9567 122.817 40.73C123.237 40.5033 123.717 40.39 124.257 40.39C124.804 40.39 125.28 40.5033 125.687 40.73C126.1 40.9567 126.417 41.27 126.637 41.67C126.864 42.0633 126.977 42.5133 126.977 43.02ZM125.557 42.88C125.577 42.4267 125.457 42.0833 125.197 41.85C124.944 41.6167 124.63 41.5 124.257 41.5C123.877 41.5 123.557 41.6167 123.297 41.85C123.037 42.0833 122.894 42.4267 122.867 42.88H125.557ZM129.996 38.87C129.996 38.6433 130.076 38.46 130.236 38.32C130.396 38.1733 130.606 38.1 130.866 38.1C131.126 38.1 131.336 38.1733 131.496 38.32C131.656 38.46 131.736 38.6433 131.736 38.87C131.736 39.09 131.656 39.2733 131.496 39.42C131.336 39.56 131.126 39.63 130.866 39.63C130.606 39.63 130.396 39.56 130.236 39.42C130.076 39.2733 129.996 39.09 129.996 38.87ZM131.566 40.46V46H130.156V40.46H131.566ZM134.751 40.39C135.425 40.39 135.965 40.56 136.371 40.9C136.778 41.24 137.031 41.6933 137.131 42.26H135.811C135.758 41.9933 135.638 41.78 135.451 41.62C135.265 41.46 135.021 41.38 134.721 41.38C134.481 41.38 134.295 41.4367 134.161 41.55C134.028 41.6633 133.961 41.8167 133.961 42.01C133.961 42.1633 134.015 42.2867 134.121 42.38C134.228 42.4733 134.361 42.5467 134.521 42.6C134.681 42.6533 134.911 42.7167 135.211 42.79C135.631 42.8833 135.971 42.9833 136.231 43.09C136.498 43.19 136.725 43.3533 136.911 43.58C137.105 43.8 137.201 44.1 137.201 44.48C137.201 44.9533 137.015 45.3367 136.641 45.63C136.275 45.9233 135.778 46.07 135.151 46.07C134.431 46.07 133.855 45.91 133.421 45.59C132.988 45.2633 132.725 44.8 132.631 44.2H133.981C134.015 44.4733 134.135 44.69 134.341 44.85C134.548 45.0033 134.818 45.08 135.151 45.08C135.391 45.08 135.575 45.0233 135.701 44.91C135.828 44.79 135.891 44.6367 135.891 44.45C135.891 44.29 135.835 44.16 135.721 44.06C135.615 43.96 135.478 43.8833 135.311 43.83C135.151 43.7767 134.921 43.7133 134.621 43.64C134.208 43.5467 133.871 43.4533 133.611 43.36C133.358 43.26 133.138 43.1033 132.951 42.89C132.771 42.6767 132.681 42.3833 132.681 42.01C132.681 41.53 132.865 41.14 133.231 40.84C133.598 40.54 134.105 40.39 134.751 40.39ZM93.05 55.92H95.42V57H91.64V49.94H93.05V55.92ZM96.0991 49.87C96.0991 49.6433 96.1791 49.46 96.3391 49.32C96.4991 49.1733 96.7091 49.1 96.9691 49.1C97.2291 49.1 97.4391 49.1733 97.5991 49.32C97.7591 49.46 97.8391 49.6433 97.8391 49.87C97.8391 50.09 97.7591 50.2733 97.5991 50.42C97.4391 50.56 97.2291 50.63 96.9691 50.63C96.7091 50.63 96.4991 50.56 96.3391 50.42C96.1791 50.2733 96.0991 50.09 96.0991 49.87ZM97.6691 51.46V57H96.2591V51.46H97.6691ZM101.355 55.59L102.755 51.46H104.255L102.205 57H100.485L98.4347 51.46H99.9447L101.355 55.59ZM110.248 54.02C110.248 54.16 110.232 54.32 110.198 54.5H106.138C106.158 54.9933 106.292 55.3567 106.538 55.59C106.785 55.8233 107.092 55.94 107.458 55.94C107.785 55.94 108.055 55.86 108.268 55.7C108.488 55.54 108.628 55.3233 108.688 55.05H110.178C110.105 55.4367 109.948 55.7833 109.708 56.09C109.468 56.3967 109.158 56.6367 108.778 56.81C108.405 56.9833 107.988 57.07 107.528 57.07C106.988 57.07 106.508 56.9567 106.088 56.73C105.668 56.4967 105.342 56.1667 105.108 55.74C104.875 55.3133 104.758 54.81 104.758 54.23C104.758 53.65 104.875 53.1467 105.108 52.72C105.342 52.2867 105.668 51.9567 106.088 51.73C106.508 51.5033 106.988 51.39 107.528 51.39C108.075 51.39 108.552 51.5033 108.958 51.73C109.372 51.9567 109.688 52.27 109.908 52.67C110.135 53.0633 110.248 53.5133 110.248 54.02ZM108.828 53.88C108.848 53.4267 108.728 53.0833 108.468 52.85C108.215 52.6167 107.902 52.5 107.528 52.5C107.148 52.5 106.828 52.6167 106.568 52.85C106.308 53.0833 106.165 53.4267 106.138 53.88H108.828ZM119.407 57H117.997L114.837 52.2V57H113.427V49.94H114.837L117.997 54.78V49.94H119.407V57ZM123.243 51.39C123.783 51.39 124.266 51.5033 124.693 51.73C125.126 51.9567 125.466 52.2867 125.713 52.72C125.96 53.1467 126.083 53.65 126.083 54.23C126.083 54.81 125.96 55.3133 125.713 55.74C125.466 56.1667 125.126 56.4967 124.693 56.73C124.266 56.9567 123.783 57.07 123.243 57.07C122.703 57.07 122.216 56.9567 121.783 56.73C121.356 56.4967 121.02 56.1667 120.773 55.74C120.526 55.3133 120.403 54.81 120.403 54.23C120.403 53.65 120.526 53.1467 120.773 52.72C121.02 52.2867 121.356 51.9567 121.783 51.73C122.216 51.5033 122.703 51.39 123.243 51.39ZM123.243 52.61C122.85 52.61 122.516 52.75 122.243 53.03C121.97 53.3033 121.833 53.7033 121.833 54.23C121.833 54.7567 121.97 55.16 122.243 55.44C122.516 55.7133 122.85 55.85 123.243 55.85C123.636 55.85 123.97 55.7133 124.243 55.44C124.516 55.16 124.653 54.7567 124.653 54.23C124.653 53.7033 124.516 53.3033 124.243 53.03C123.97 52.75 123.636 52.61 123.243 52.61ZM135.009 51.46L133.519 57H131.959L130.769 52.97L129.549 57H127.989L126.509 51.46H127.919L128.819 55.74L130.049 51.46H131.539L132.779 55.74L133.689 51.46H135.009Z" fill="#0E1626"/>
<defs>
<filter id="filter0_d_17_5008" x="0" y="0" width="190" height="120" filterUnits="userSpaceOnUse" color-interpolation-filters="sRGB">
<feFlood flood-opacity="0" result="BackgroundImageFix"/>
<feColorMatrix in="SourceAlpha" type="matrix" values="0 0 0 0 0 0 0 0 0 0 0 0 0 0 0 0 0 0 127 0" result="hardAlpha"/>
<feOffset dy="12"/>
<feGaussianBlur stdDeviation="15"/>
<feComposite in2="hardAlpha" operator="out"/>
<feColorMatrix type="matrix" values="0 0 0 0 0.898438 0 0 0 0 0.914062 0 0 0 0 0.9375 0 0 0 1 0"/>
<feBlend mode="normal" in2="BackgroundImageFix" result="effect1_dropShadow_17_5008"/>
<feBlend mode="normal" in="SourceGraphic" in2="effect1_dropShadow_17_5008" result="shape"/>
</filter>
<clipPath id="clip0_17_5008">
<rect width="18" height="18" fill="white" transform="translate(55 39)"/>
</clipPath>
</defs>
</svg>
