<svg width="140" height="160" viewBox="0 0 140 160" fill="none" xmlns="http://www.w3.org/2000/svg">
<g filter="url(#filter0_d_7_550)">
<rect x="30" y="18" width="80" height="100" rx="18" fill="white"/>
</g>
<circle cx="70" cy="53" r="18" fill="#FFDDBB"/>
<g clip-path="url(#clip0_7_550)">
<path d="M67.75 60.5H72.25C76 60.5 77.5 59 77.5 55.25V50.75C77.5 47 76 45.5 72.25 45.5H67.75C64 45.5 62.5 47 62.5 50.75V55.25C62.5 59 64 60.5 67.75 60.5Z" stroke="#FF8100" stroke-width="2" stroke-linecap="round" stroke-linejoin="round"/>
<path d="M66.4976 54.8676L68.2826 52.5501C68.5376 52.2201 69.0101 52.1601 69.3401 52.4151L70.7126 53.4951C71.0426 53.7501 71.5151 53.6901 71.7701 53.3676L73.5026 51.1326" stroke="#FF8100" stroke-width="2" stroke-linecap="round" stroke-linejoin="round"/>
</g>
<path d="M60.7775 83.12C60.6175 82.8267 60.3975 82.6033 60.1175 82.45C59.8375 82.2967 59.5109 82.22 59.1375 82.22C58.7242 82.22 58.3575 82.3133 58.0375 82.5C57.7175 82.6867 57.4675 82.9533 57.2875 83.3C57.1075 83.6467 57.0175 84.0467 57.0175 84.5C57.0175 84.9667 57.1075 85.3733 57.2875 85.72C57.4742 86.0667 57.7309 86.3333 58.0575 86.52C58.3842 86.7067 58.7642 86.8 59.1975 86.8C59.7309 86.8 60.1675 86.66 60.5075 86.38C60.8475 86.0933 61.0709 85.6967 61.1775 85.19H58.7775V84.12H62.5575V85.34C62.4642 85.8267 62.2642 86.2767 61.9575 86.69C61.6509 87.1033 61.2542 87.4367 60.7675 87.69C60.2875 87.9367 59.7475 88.06 59.1475 88.06C58.4742 88.06 57.8642 87.91 57.3175 87.61C56.7775 87.3033 56.3509 86.88 56.0375 86.34C55.7309 85.8 55.5775 85.1867 55.5775 84.5C55.5775 83.8133 55.7309 83.2 56.0375 82.66C56.3509 82.1133 56.7775 81.69 57.3175 81.39C57.8642 81.0833 58.4709 80.93 59.1375 80.93C59.9242 80.93 60.6075 81.1233 61.1875 81.51C61.7675 81.89 62.1675 82.4267 62.3875 83.12H60.7775ZM64.9933 83.32C65.1733 83.0267 65.4067 82.7967 65.6933 82.63C65.9867 82.4633 66.32 82.38 66.6933 82.38V83.85H66.3233C65.8833 83.85 65.55 83.9533 65.3233 84.16C65.1033 84.3667 64.9933 84.7267 64.9933 85.24V88H63.5933V82.46H64.9933V83.32ZM72.7863 85.11C72.7863 85.31 72.773 85.49 72.7463 85.65H68.6963C68.7296 86.05 68.8696 86.3633 69.1163 86.59C69.363 86.8167 69.6663 86.93 70.0263 86.93C70.5463 86.93 70.9163 86.7067 71.1363 86.26H72.6463C72.4863 86.7933 72.1796 87.2333 71.7263 87.58C71.273 87.92 70.7163 88.09 70.0563 88.09C69.523 88.09 69.043 87.9733 68.6163 87.74C68.1963 87.5 67.8663 87.1633 67.6263 86.73C67.393 86.2967 67.2763 85.7967 67.2763 85.23C67.2763 84.6567 67.393 84.1533 67.6263 83.72C67.8596 83.2867 68.1863 82.9533 68.6063 82.72C69.0263 82.4867 69.5096 82.37 70.0563 82.37C70.583 82.37 71.053 82.4833 71.4663 82.71C71.8863 82.9367 72.2096 83.26 72.4363 83.68C72.6696 84.0933 72.7863 84.57 72.7863 85.11ZM71.3363 84.71C71.3296 84.35 71.1996 84.0633 70.9463 83.85C70.693 83.63 70.383 83.52 70.0163 83.52C69.6696 83.52 69.3763 83.6267 69.1363 83.84C68.903 84.0467 68.7596 84.3367 68.7063 84.71H71.3363ZM73.4482 85.21C73.4482 84.65 73.5582 84.1533 73.7782 83.72C74.0048 83.2867 74.3082 82.9533 74.6882 82.72C75.0748 82.4867 75.5048 82.37 75.9782 82.37C76.3915 82.37 76.7515 82.4533 77.0582 82.62C77.3715 82.7867 77.6215 82.9967 77.8082 83.25V82.46H79.2182V88H77.8082V87.19C77.6282 87.45 77.3782 87.6667 77.0582 87.84C76.7448 88.0067 76.3815 88.09 75.9682 88.09C75.5015 88.09 75.0748 87.97 74.6882 87.73C74.3082 87.49 74.0048 87.1533 73.7782 86.72C73.5582 86.28 73.4482 85.7767 73.4482 85.21ZM77.8082 85.23C77.8082 84.89 77.7415 84.6 77.6082 84.36C77.4748 84.1133 77.2948 83.9267 77.0682 83.8C76.8415 83.6667 76.5982 83.6 76.3382 83.6C76.0782 83.6 75.8382 83.6633 75.6182 83.79C75.3982 83.9167 75.2182 84.1033 75.0782 84.35C74.9448 84.59 74.8782 84.8767 74.8782 85.21C74.8782 85.5433 74.9448 85.8367 75.0782 86.09C75.2182 86.3367 75.3982 86.5267 75.6182 86.66C75.8448 86.7933 76.0848 86.86 76.3382 86.86C76.5982 86.86 76.8415 86.7967 77.0682 86.67C77.2948 86.5367 77.4748 86.35 77.6082 86.11C77.7415 85.8633 77.8082 85.57 77.8082 85.23ZM82.2155 83.61V86.29C82.2155 86.4767 82.2588 86.6133 82.3455 86.7C82.4388 86.78 82.5922 86.82 82.8055 86.82H83.4555V88H82.5755C81.3955 88 80.8055 87.4267 80.8055 86.28V83.61H80.1455V82.46H80.8055V81.09H82.2155V82.46H83.4555V83.61H82.2155ZM52.5902 99.07C52.1036 99.07 51.6636 98.9867 51.2702 98.82C50.8836 98.6533 50.5769 98.4133 50.3502 98.1C50.1236 97.7867 50.0069 97.4167 50.0002 96.99H51.5002C51.5202 97.2767 51.6202 97.5033 51.8002 97.67C51.9869 97.8367 52.2402 97.92 52.5602 97.92C52.8869 97.92 53.1436 97.8433 53.3302 97.69C53.5169 97.53 53.6102 97.3233 53.6102 97.07C53.6102 96.8633 53.5469 96.6933 53.4202 96.56C53.2936 96.4267 53.1336 96.3233 52.9402 96.25C52.7536 96.17 52.4936 96.0833 52.1602 95.99C51.7069 95.8567 51.3369 95.7267 51.0502 95.6C50.7702 95.4667 50.5269 95.27 50.3202 95.01C50.1202 94.7433 50.0202 94.39 50.0202 93.95C50.0202 93.5367 50.1236 93.1767 50.3302 92.87C50.5369 92.5633 50.8269 92.33 51.2002 92.17C51.5736 92.0033 52.0002 91.92 52.4802 91.92C53.2002 91.92 53.7836 92.0967 54.2302 92.45C54.6836 92.7967 54.9336 93.2833 54.9802 93.91H53.4402C53.4269 93.67 53.3236 93.4733 53.1302 93.32C52.9436 93.16 52.6936 93.08 52.3802 93.08C52.1069 93.08 51.8869 93.15 51.7202 93.29C51.5602 93.43 51.4802 93.6333 51.4802 93.9C51.4802 94.0867 51.5402 94.2433 51.6602 94.37C51.7869 94.49 51.9402 94.59 52.1202 94.67C52.3069 94.7433 52.5669 94.83 52.9002 94.93C53.3536 95.0633 53.7236 95.1967 54.0102 95.33C54.2969 95.4633 54.5436 95.6633 54.7502 95.93C54.9569 96.1967 55.0602 96.5467 55.0602 96.98C55.0602 97.3533 54.9636 97.7 54.7702 98.02C54.5769 98.34 54.2936 98.5967 53.9202 98.79C53.5469 98.9767 53.1036 99.07 52.5902 99.07ZM57.904 94.61V97.29C57.904 97.4767 57.9473 97.6133 58.034 97.7C58.1273 97.78 58.2807 97.82 58.494 97.82H59.144V99H58.264C57.084 99 56.494 98.4267 56.494 97.28V94.61H55.834V93.46H56.494V92.09H57.904V93.46H59.144V94.61H57.904ZM65.3809 93.46V99H63.9709V98.3C63.7909 98.54 63.5543 98.73 63.2609 98.87C62.9743 99.0033 62.6609 99.07 62.3209 99.07C61.8876 99.07 61.5043 98.98 61.1709 98.8C60.8376 98.6133 60.5743 98.3433 60.3809 97.99C60.1943 97.63 60.1009 97.2033 60.1009 96.71V93.46H61.5009V96.51C61.5009 96.95 61.6109 97.29 61.8309 97.53C62.0509 97.7633 62.3509 97.88 62.7309 97.88C63.1176 97.88 63.4209 97.7633 63.6409 97.53C63.8609 97.29 63.9709 96.95 63.9709 96.51V93.46H65.3809ZM66.4023 96.21C66.4023 95.65 66.5123 95.1533 66.7323 94.72C66.9589 94.2867 67.2656 93.9533 67.6523 93.72C68.0389 93.4867 68.4689 93.37 68.9423 93.37C69.3023 93.37 69.6456 93.45 69.9723 93.61C70.2989 93.7633 70.5589 93.97 70.7523 94.23V91.6H72.1723V99H70.7523V98.18C70.5789 98.4533 70.3356 98.6733 70.0223 98.84C69.7089 99.0067 69.3456 99.09 68.9323 99.09C68.4656 99.09 68.0389 98.97 67.6523 98.73C67.2656 98.49 66.9589 98.1533 66.7323 97.72C66.5123 97.28 66.4023 96.7767 66.4023 96.21ZM70.7623 96.23C70.7623 95.89 70.6956 95.6 70.5623 95.36C70.4289 95.1133 70.2489 94.9267 70.0223 94.8C69.7956 94.6667 69.5523 94.6 69.2923 94.6C69.0323 94.6 68.7923 94.6633 68.5723 94.79C68.3523 94.9167 68.1723 95.1033 68.0323 95.35C67.8989 95.59 67.8323 95.8767 67.8323 96.21C67.8323 96.5433 67.8989 96.8367 68.0323 97.09C68.1723 97.3367 68.3523 97.5267 68.5723 97.66C68.7989 97.7933 69.0389 97.86 69.2923 97.86C69.5523 97.86 69.7956 97.7967 70.0223 97.67C70.2489 97.5367 70.4289 97.35 70.5623 97.11C70.6956 96.8633 70.7623 96.57 70.7623 96.23ZM78.6896 96.11C78.6896 96.31 78.6763 96.49 78.6496 96.65H74.5996C74.6329 97.05 74.7729 97.3633 75.0196 97.59C75.2663 97.8167 75.5696 97.93 75.9296 97.93C76.4496 97.93 76.8196 97.7067 77.0396 97.26H78.5496C78.3896 97.7933 78.0829 98.2333 77.6296 98.58C77.1763 98.92 76.6196 99.09 75.9596 99.09C75.4263 99.09 74.9463 98.9733 74.5196 98.74C74.0996 98.5 73.7696 98.1633 73.5296 97.73C73.2963 97.2967 73.1796 96.7967 73.1796 96.23C73.1796 95.6567 73.2963 95.1533 73.5296 94.72C73.7629 94.2867 74.0896 93.9533 74.5096 93.72C74.9296 93.4867 75.4129 93.37 75.9596 93.37C76.4863 93.37 76.9563 93.4833 77.3696 93.71C77.7896 93.9367 78.1129 94.26 78.3396 94.68C78.5729 95.0933 78.6896 95.57 78.6896 96.11ZM77.2396 95.71C77.2329 95.35 77.1029 95.0633 76.8496 94.85C76.5963 94.63 76.2863 94.52 75.9196 94.52C75.5729 94.52 75.2796 94.6267 75.0396 94.84C74.8063 95.0467 74.6629 95.3367 74.6096 95.71H77.2396ZM82.7815 93.38C83.4415 93.38 83.9748 93.59 84.3815 94.01C84.7882 94.4233 84.9915 95.0033 84.9915 95.75V99H83.5915V95.94C83.5915 95.5 83.4815 95.1633 83.2615 94.93C83.0415 94.69 82.7415 94.57 82.3615 94.57C81.9748 94.57 81.6682 94.69 81.4415 94.93C81.2215 95.1633 81.1115 95.5 81.1115 95.94V99H79.7115V93.46H81.1115V94.15C81.2982 93.91 81.5348 93.7233 81.8215 93.59C82.1148 93.45 82.4348 93.38 82.7815 93.38ZM87.9528 94.61V97.29C87.9528 97.4767 87.9961 97.6133 88.0828 97.7C88.1761 97.78 88.3295 97.82 88.5428 97.82H89.1928V99H88.3128C87.1328 99 86.5428 98.4267 86.5428 97.28V94.61H85.8828V93.46H86.5428V92.09H87.9528V93.46H89.1928V94.61H87.9528Z" fill="#0E1626"/>
<defs>
<filter id="filter0_d_7_550" x="0" y="0" width="140" height="160" filterUnits="userSpaceOnUse" color-interpolation-filters="sRGB">
<feFlood flood-opacity="0" result="BackgroundImageFix"/>
<feColorMatrix in="SourceAlpha" type="matrix" values="0 0 0 0 0 0 0 0 0 0 0 0 0 0 0 0 0 0 127 0" result="hardAlpha"/>
<feOffset dy="12"/>
<feGaussianBlur stdDeviation="15"/>
<feComposite in2="hardAlpha" operator="out"/>
<feColorMatrix type="matrix" values="0 0 0 0 0.898438 0 0 0 0 0.914062 0 0 0 0 0.9375 0 0 0 1 0"/>
<feBlend mode="normal" in2="BackgroundImageFix" result="effect1_dropShadow_7_550"/>
<feBlend mode="normal" in="SourceGraphic" in2="effect1_dropShadow_7_550" result="shape"/>
</filter>
<clipPath id="clip0_7_550">
<rect width="18" height="18" fill="white" transform="translate(61 44)"/>
</clipPath>
</defs>
</svg>
