<svg width="139" height="42" viewBox="0 0 139 42" fill="none" xmlns="http://www.w3.org/2000/svg">
<path d="M55.076 6.4H60.332L65.912 19H59.108L57.218 14.824H53.258L51.638 19H50.324L55.076 6.4ZM56.714 13.726L55.076 10.072L53.654 13.726H56.714ZM68.3331 6.4H73.6251L78.8811 12.7V6.4H79.9611V19H75.7311L69.4311 10.612V19H68.3331V6.4ZM82.6818 12.682C82.6818 10.558 83.2038 8.98 84.2478 7.948C84.9198 7.276 85.6698 6.832 86.4978 6.616C87.3258 6.4 88.4118 6.292 89.7558 6.292C91.0038 6.292 92.0058 6.382 92.7618 6.562C93.5298 6.73 94.1598 7.096 94.6518 7.66C95.0598 8.128 95.3778 8.698 95.6058 9.37C95.8458 10.03 95.9838 10.678 96.0198 11.314H94.9938C94.9458 10.774 94.8138 10.222 94.5978 9.658C94.3938 9.082 94.0698 8.59 93.6258 8.182C93.1818 7.762 92.6178 7.552 91.9338 7.552C91.2978 7.552 90.7698 7.834 90.3498 8.398C89.9898 8.89 89.7318 9.544 89.5758 10.36C89.4318 11.08 89.3598 11.854 89.3598 12.682C89.3598 14.038 89.5278 15.172 89.8638 16.084C90.3078 17.248 90.9978 17.83 91.9338 17.83V12.844H97.4418V19C95.7138 19 93.7578 19.024 91.5738 19.072L89.7558 19.09C88.4358 19.09 87.3618 18.964 86.5338 18.712C85.7178 18.448 85.0158 18.022 84.4278 17.434C83.2638 16.27 82.6818 14.686 82.6818 12.682ZM100.159 12.682C100.159 10.558 100.681 8.98 101.725 7.948C102.397 7.276 103.147 6.832 103.975 6.616C104.803 6.4 105.889 6.292 107.233 6.292C108.481 6.292 109.483 6.382 110.239 6.562C111.007 6.73 111.637 7.096 112.129 7.66C112.537 8.128 112.855 8.698 113.083 9.37C113.323 10.03 113.461 10.678 113.497 11.314H112.471C112.423 10.774 112.291 10.222 112.075 9.658C111.871 9.082 111.547 8.59 111.103 8.182C110.659 7.762 110.095 7.552 109.411 7.552C108.775 7.552 108.247 7.834 107.827 8.398C107.467 8.89 107.209 9.544 107.053 10.36C106.909 11.08 106.837 11.854 106.837 12.682C106.837 14.038 107.005 15.172 107.341 16.084C107.785 17.248 108.475 17.83 109.411 17.83V12.844H114.919V19C113.191 19 111.235 19.024 109.051 19.072L107.233 19.09C105.913 19.09 104.839 18.964 104.011 18.712C103.195 18.448 102.493 18.022 101.905 17.434C100.741 16.27 100.159 14.686 100.159 12.682ZM122.209 6.4H127.465L133.045 19H126.241L124.351 14.824H120.391L118.771 19H117.457L122.209 6.4ZM123.847 13.726L122.209 10.072L120.787 13.726H123.847ZM59.738 38.83C60.638 38.83 61.352 38.464 61.88 37.732C62.408 37 62.75 36.112 62.906 35.068H64.022C63.854 36.364 63.428 37.468 62.744 38.38C62.36 38.884 61.922 39.262 61.43 39.514C60.95 39.754 60.416 39.91 59.828 39.982C59.252 40.054 58.496 40.09 57.56 40.09C56.24 40.09 55.166 39.964 54.338 39.712C53.522 39.448 52.82 39.022 52.232 38.434C51.08 37.282 50.504 35.698 50.504 33.682C50.504 31.558 51.02 29.98 52.052 28.948C52.724 28.276 53.474 27.832 54.302 27.616C55.13 27.4 56.216 27.292 57.56 27.292C58.796 27.292 59.798 27.382 60.566 27.562C61.346 27.73 61.982 28.096 62.474 28.66C62.882 29.128 63.2 29.692 63.428 30.352C63.656 31.012 63.788 31.666 63.824 32.314H62.798C62.75 31.774 62.618 31.222 62.402 30.658C62.198 30.082 61.874 29.59 61.43 29.182C60.986 28.762 60.422 28.552 59.738 28.552C59.09 28.552 58.568 28.834 58.172 29.398C57.824 29.842 57.56 30.496 57.38 31.36C57.248 32.02 57.182 32.794 57.182 33.682C57.182 35.086 57.35 36.22 57.686 37.084C58.118 38.248 58.802 38.83 59.738 38.83ZM66.6105 27.4H72.4785V40H66.6105V27.4ZM75.2111 27.4H87.2531C87.8411 27.4 88.3811 27.55 88.8731 27.85C89.3771 28.138 89.7731 28.534 90.0611 29.038C90.3611 29.53 90.5111 30.07 90.5111 30.658C90.5111 31.438 90.2711 32.146 89.7911 32.782C89.3111 33.418 88.7051 33.826 87.9731 34.006C88.6211 34.186 89.1491 34.528 89.5571 35.032C89.9771 35.536 90.1871 36.106 90.1871 36.742V40H84.1571V36.094C84.1571 35.71 84.0851 35.41 83.9411 35.194C83.7731 34.942 83.5811 34.756 83.3651 34.636C83.1251 34.504 82.8551 34.408 82.5551 34.348C82.2431 34.288 81.9491 34.252 81.6731 34.24L81.1871 34.222V40H75.2111V27.4ZM81.8171 33.178C82.2491 33.178 82.6451 33.076 83.0051 32.872C83.3771 32.656 83.6651 32.368 83.8691 32.008C84.0851 31.636 84.1931 31.24 84.1931 30.82C84.1931 30.388 84.0851 29.992 83.8691 29.632C83.6651 29.26 83.3771 28.966 83.0051 28.75C82.6451 28.534 82.2491 28.426 81.8171 28.426H81.1871V33.196L81.8171 33.178ZM102.485 38.83C103.385 38.83 104.099 38.464 104.627 37.732C105.155 37 105.497 36.112 105.653 35.068H106.769C106.601 36.364 106.175 37.468 105.491 38.38C105.107 38.884 104.669 39.262 104.177 39.514C103.697 39.754 103.163 39.91 102.575 39.982C101.999 40.054 101.243 40.09 100.307 40.09C98.9872 40.09 97.9132 39.964 97.0852 39.712C96.2692 39.448 95.5672 39.022 94.9792 38.434C93.8272 37.282 93.2512 35.698 93.2512 33.682C93.2512 31.558 93.7672 29.98 94.7992 28.948C95.4712 28.276 96.2212 27.832 97.0492 27.616C97.8772 27.4 98.9632 27.292 100.307 27.292C101.543 27.292 102.545 27.382 103.313 27.562C104.093 27.73 104.729 28.096 105.221 28.66C105.629 29.128 105.947 29.692 106.175 30.352C106.403 31.012 106.535 31.666 106.571 32.314H105.545C105.497 31.774 105.365 31.222 105.149 30.658C104.945 30.082 104.621 29.59 104.177 29.182C103.733 28.762 103.169 28.552 102.485 28.552C101.837 28.552 101.315 28.834 100.919 29.398C100.571 29.842 100.307 30.496 100.127 31.36C99.9952 32.02 99.9292 32.794 99.9292 33.682C99.9292 35.086 100.097 36.22 100.433 37.084C100.865 38.248 101.549 38.83 102.485 38.83ZM109.358 27.4H115.676V38.92H122.516V40H109.358V27.4ZM125.253 27.4H138.339V28.462H131.589V33.124H134.901V34.204H131.589V38.92H138.339V40H125.253V27.4Z" fill="#0E1626"/>
<g clip-path="url(#clip0_7_887)">
<path d="M39.9449 22.4998H32.8003C26.5594 22.4998 21.5003 27.559 21.5003 33.7998V40.9444C31.3502 40.214 39.2145 32.3497 39.9449 22.4998Z" fill="#493EF2"/>
<path d="M18.5003 40.9444V33.7998C18.5003 27.559 13.4411 22.4998 7.20026 22.4998H0.0556641C0.785998 32.3497 8.65036 40.214 18.5003 40.9444Z" fill="#493EF2"/>
<path d="M39.9449 19.4998C39.2145 9.64987 31.3502 1.78551 21.5003 1.05518V8.19977C21.5003 14.4406 26.5594 19.4998 32.8003 19.4998H39.9449Z" fill="#493EF2"/>
<path d="M18.5003 1.05518C8.65036 1.78551 0.785998 9.64987 0.0556641 19.4998H7.20026C13.4411 19.4998 18.5003 14.4406 18.5003 8.19977V1.05518Z" fill="#493EF2"/>
<path d="M13.583 20.9998C16.3555 19.6145 18.615 17.355 20.0002 14.5825C21.3855 17.355 23.6449 19.6145 26.4175 20.9998C23.6449 22.385 21.3855 24.6445 20.0002 27.417C18.615 24.6445 16.3555 22.385 13.583 20.9998Z" fill="#FF8100"/>
</g>
<defs>
<clipPath id="clip0_7_887">
<rect width="40" height="40" fill="white" transform="translate(0 1)"/>
</clipPath>
</defs>
</svg>