<svg width="190" height="120" viewBox="0 0 190 120" fill="none" xmlns="http://www.w3.org/2000/svg">
<g filter="url(#filter0_d_7_551)">
<rect x="30" y="18" width="130" height="60" rx="18" fill="white"/>
</g>
<circle cx="64" cy="48" r="18" fill="#DDDBFF"/>
<g clip-path="url(#clip0_7_551)">
<path d="M69.9775 46.5H57.9775V52.5C57.9775 54.75 58.7275 55.5 60.9775 55.5H66.9775C69.2275 55.5 69.9775 54.75 69.9775 52.5V46.5ZM71.125 44.25V45C71.125 45.825 70.7275 46.5 69.625 46.5H58.375C57.2275 46.5 56.875 45.825 56.875 45V44.25C56.875 43.425 57.2275 42.75 58.375 42.75H69.625C70.7275 42.75 71.125 43.425 71.125 44.25ZM63.73 42.75H59.59C59.4667 42.6162 59.4001 42.4398 59.4043 42.2579C59.4085 42.0761 59.4831 41.9029 59.6125 41.775L60.6775 40.71C60.8123 40.5767 60.9942 40.502 61.1837 40.502C61.3733 40.502 61.5552 40.5767 61.69 40.71L63.73 42.75ZM68.4025 42.75H64.2625L66.3025 40.71C66.4373 40.5767 66.6192 40.502 66.8087 40.502C66.9983 40.502 67.1802 40.5767 67.315 40.71L68.38 41.775C68.65 42.045 68.6575 42.4725 68.4025 42.75Z" stroke="#493EF2" stroke-width="2" stroke-miterlimit="10" stroke-linecap="round" stroke-linejoin="round"/>
<path d="M61.7051 46.5V50.355C61.7051 50.955 62.3651 51.3075 62.8676 50.985L63.5726 50.52C63.695 50.4394 63.8384 50.3964 63.9851 50.3964C64.1317 50.3964 64.2751 50.4394 64.3976 50.52L65.0651 50.97C65.1777 51.0451 65.3086 51.0882 65.4438 51.0947C65.579 51.1012 65.7135 51.0709 65.8328 51.007C65.9521 50.9431 66.0519 50.848 66.1214 50.7319C66.1909 50.6157 66.2276 50.4829 66.2276 50.3475V46.5H61.7051Z" stroke="#493EF2" stroke-width="2" stroke-miterlimit="10" stroke-linecap="round" stroke-linejoin="round"/>
</g>
<path d="M95.32 46L93.67 43.25H93.05V46H91.64V38.94H94.33C95.15 38.94 95.7733 39.14 96.2 39.54C96.6333 39.94 96.85 40.4667 96.85 41.12C96.85 41.6533 96.7 42.1 96.4 42.46C96.1067 42.82 95.68 43.06 95.12 43.18L96.88 46H95.32ZM93.05 42.28H94.21C95.0167 42.28 95.42 41.9233 95.42 41.21C95.42 40.87 95.32 40.6067 95.12 40.42C94.9267 40.2267 94.6233 40.13 94.21 40.13H93.05V42.28ZM103.012 43.02C103.012 43.16 102.995 43.32 102.962 43.5H98.9021C98.9221 43.9933 99.0554 44.3567 99.3021 44.59C99.5488 44.8233 99.8554 44.94 100.222 44.94C100.549 44.94 100.819 44.86 101.032 44.7C101.252 44.54 101.392 44.3233 101.452 44.05H102.942C102.869 44.4367 102.712 44.7833 102.472 45.09C102.232 45.3967 101.922 45.6367 101.542 45.81C101.169 45.9833 100.752 46.07 100.292 46.07C99.7521 46.07 99.2721 45.9567 98.8521 45.73C98.4321 45.4967 98.1054 45.1667 97.8721 44.74C97.6388 44.3133 97.5221 43.81 97.5221 43.23C97.5221 42.65 97.6388 42.1467 97.8721 41.72C98.1054 41.2867 98.4321 40.9567 98.8521 40.73C99.2721 40.5033 99.7521 40.39 100.292 40.39C100.839 40.39 101.315 40.5033 101.722 40.73C102.135 40.9567 102.452 41.27 102.672 41.67C102.899 42.0633 103.012 42.5133 103.012 43.02ZM101.592 42.88C101.612 42.4267 101.492 42.0833 101.232 41.85C100.979 41.6167 100.665 41.5 100.292 41.5C99.9121 41.5 99.5921 41.6167 99.3321 41.85C99.0721 42.0833 98.9288 42.4267 98.9021 42.88H101.592ZM111.943 40.46L110.453 46H108.893L107.703 41.97L106.483 46H104.923L103.443 40.46H104.853L105.753 44.74L106.983 40.46H108.473L109.713 44.74L110.623 40.46H111.943ZM114.816 40.39C115.283 40.39 115.683 40.5 116.016 40.72C116.349 40.94 116.586 41.2367 116.726 41.61V40.46H118.126V46H116.726V44.84C116.586 45.2133 116.349 45.5133 116.016 45.74C115.683 45.96 115.283 46.07 114.816 46.07C114.349 46.07 113.929 45.9567 113.556 45.73C113.183 45.5033 112.889 45.1767 112.676 44.75C112.469 44.3167 112.366 43.81 112.366 43.23C112.366 42.65 112.469 42.1467 112.676 41.72C112.889 41.2867 113.183 40.9567 113.556 40.73C113.929 40.5033 114.349 40.39 114.816 40.39ZM115.256 41.62C114.816 41.62 114.463 41.7633 114.196 42.05C113.929 42.3367 113.796 42.73 113.796 43.23C113.796 43.73 113.929 44.1233 114.196 44.41C114.463 44.69 114.816 44.83 115.256 44.83C115.683 44.83 116.033 44.6867 116.306 44.4C116.586 44.1067 116.726 43.7167 116.726 43.23C116.726 42.7367 116.586 42.3467 116.306 42.06C116.033 41.7667 115.683 41.62 115.256 41.62ZM120.814 41.52C121.02 41.1667 121.294 40.89 121.634 40.69C121.974 40.4833 122.354 40.38 122.774 40.38V41.89H122.364C121.33 41.89 120.814 42.37 120.814 43.33V46H119.404V40.46H120.814V41.52ZM125.724 40.39C126.191 40.39 126.587 40.5 126.914 40.72C127.247 40.94 127.487 41.2367 127.634 41.61V38.6H129.034V46H127.634V44.84C127.487 45.2133 127.247 45.5133 126.914 45.74C126.587 45.96 126.191 46.07 125.724 46.07C125.257 46.07 124.837 45.9567 124.464 45.73C124.091 45.5033 123.797 45.1767 123.584 44.75C123.377 44.3167 123.274 43.81 123.274 43.23C123.274 42.65 123.377 42.1467 123.584 41.72C123.797 41.2867 124.091 40.9567 124.464 40.73C124.837 40.5033 125.257 40.39 125.724 40.39ZM126.164 41.62C125.724 41.62 125.371 41.7633 125.104 42.05C124.837 42.3367 124.704 42.73 124.704 43.23C124.704 43.73 124.837 44.1233 125.104 44.41C125.371 44.69 125.724 44.83 126.164 44.83C126.591 44.83 126.941 44.6867 127.214 44.4C127.494 44.1067 127.634 43.7167 127.634 43.23C127.634 42.7367 127.494 42.3467 127.214 42.06C126.941 41.7667 126.591 41.62 126.164 41.62ZM132.222 40.39C132.895 40.39 133.435 40.56 133.842 40.9C134.249 41.24 134.502 41.6933 134.602 42.26H133.282C133.229 41.9933 133.109 41.78 132.922 41.62C132.735 41.46 132.492 41.38 132.192 41.38C131.952 41.38 131.765 41.4367 131.632 41.55C131.499 41.6633 131.432 41.8167 131.432 42.01C131.432 42.1633 131.485 42.2867 131.592 42.38C131.699 42.4733 131.832 42.5467 131.992 42.6C132.152 42.6533 132.382 42.7167 132.682 42.79C133.102 42.8833 133.442 42.9833 133.702 43.09C133.969 43.19 134.195 43.3533 134.382 43.58C134.575 43.8 134.672 44.1 134.672 44.48C134.672 44.9533 134.485 45.3367 134.112 45.63C133.745 45.9233 133.249 46.07 132.622 46.07C131.902 46.07 131.325 45.91 130.892 45.59C130.459 45.2633 130.195 44.8 130.102 44.2H131.452C131.485 44.4733 131.605 44.69 131.812 44.85C132.019 45.0033 132.289 45.08 132.622 45.08C132.862 45.08 133.045 45.0233 133.172 44.91C133.299 44.79 133.362 44.6367 133.362 44.45C133.362 44.29 133.305 44.16 133.192 44.06C133.085 43.96 132.949 43.8833 132.782 43.83C132.622 43.7767 132.392 43.7133 132.092 43.64C131.679 43.5467 131.342 43.4533 131.082 43.36C130.829 43.26 130.609 43.1033 130.422 42.89C130.242 42.6767 130.152 42.3833 130.152 42.01C130.152 41.53 130.335 41.14 130.702 40.84C131.069 40.54 131.575 40.39 132.222 40.39ZM93.05 51.06V52.89H95.55V53.97H93.05V55.87H95.85V57H91.64V49.94H95.85V51.06H93.05ZM99.0639 51.39C99.5306 51.39 99.9306 51.5 100.264 51.72C100.597 51.94 100.834 52.2367 100.974 52.61V51.46H102.374V57H100.974V55.84C100.834 56.2133 100.597 56.5133 100.264 56.74C99.9306 56.96 99.5306 57.07 99.0639 57.07C98.5972 57.07 98.1772 56.9567 97.8039 56.73C97.4306 56.5033 97.1372 56.1767 96.9239 55.75C96.7172 55.3167 96.6139 54.81 96.6139 54.23C96.6139 53.65 96.7172 53.1467 96.9239 52.72C97.1372 52.2867 97.4306 51.9567 97.8039 51.73C98.1772 51.5033 98.5972 51.39 99.0639 51.39ZM99.5039 52.62C99.0639 52.62 98.7106 52.7633 98.4439 53.05C98.1772 53.3367 98.0439 53.73 98.0439 54.23C98.0439 54.73 98.1772 55.1233 98.4439 55.41C98.7106 55.69 99.0639 55.83 99.5039 55.83C99.9306 55.83 100.281 55.6867 100.554 55.4C100.834 55.1067 100.974 54.7167 100.974 54.23C100.974 53.7367 100.834 53.3467 100.554 53.06C100.281 52.7667 99.9306 52.62 99.5039 52.62ZM105.062 52.52C105.268 52.1667 105.542 51.89 105.882 51.69C106.222 51.4833 106.602 51.38 107.022 51.38V52.89H106.612C105.578 52.89 105.062 53.37 105.062 54.33V57H103.652V51.46H105.062V52.52ZM111.102 51.38C111.742 51.38 112.252 51.59 112.632 52.01C113.012 52.43 113.202 53.02 113.202 53.78V57H111.802V53.94C111.802 53.5 111.689 53.16 111.462 52.92C111.235 52.6733 110.925 52.55 110.532 52.55C110.132 52.55 109.812 52.68 109.572 52.94C109.332 53.2 109.212 53.5733 109.212 54.06V57H107.802V51.46H109.212V52.57C109.359 52.1967 109.599 51.9067 109.932 51.7C110.272 51.4867 110.662 51.38 111.102 51.38ZM119.653 54.02C119.653 54.16 119.636 54.32 119.603 54.5H115.543C115.563 54.9933 115.696 55.3567 115.943 55.59C116.189 55.8233 116.496 55.94 116.863 55.94C117.189 55.94 117.459 55.86 117.673 55.7C117.893 55.54 118.033 55.3233 118.093 55.05H119.583C119.509 55.4367 119.353 55.7833 119.113 56.09C118.873 56.3967 118.563 56.6367 118.183 56.81C117.809 56.9833 117.393 57.07 116.933 57.07C116.393 57.07 115.913 56.9567 115.493 56.73C115.073 56.4967 114.746 56.1667 114.513 55.74C114.279 55.3133 114.163 54.81 114.163 54.23C114.163 53.65 114.279 53.1467 114.513 52.72C114.746 52.2867 115.073 51.9567 115.493 51.73C115.913 51.5033 116.393 51.39 116.933 51.39C117.479 51.39 117.956 51.5033 118.363 51.73C118.776 51.9567 119.093 52.27 119.313 52.67C119.539 53.0633 119.653 53.5133 119.653 54.02ZM118.233 53.88C118.253 53.4267 118.133 53.0833 117.873 52.85C117.619 52.6167 117.306 52.5 116.933 52.5C116.553 52.5 116.233 52.6167 115.973 52.85C115.713 53.0833 115.569 53.4267 115.543 53.88H118.233ZM122.824 51.39C123.29 51.39 123.687 51.5 124.014 51.72C124.347 51.94 124.587 52.2367 124.734 52.61V49.6H126.134V57H124.734V55.84C124.587 56.2133 124.347 56.5133 124.014 56.74C123.687 56.96 123.29 57.07 122.824 57.07C122.357 57.07 121.937 56.9567 121.564 56.73C121.19 56.5033 120.897 56.1767 120.684 55.75C120.477 55.3167 120.374 54.81 120.374 54.23C120.374 53.65 120.477 53.1467 120.684 52.72C120.897 52.2867 121.19 51.9567 121.564 51.73C121.937 51.5033 122.357 51.39 122.824 51.39ZM123.264 52.62C122.824 52.62 122.47 52.7633 122.204 53.05C121.937 53.3367 121.804 53.73 121.804 54.23C121.804 54.73 121.937 55.1233 122.204 55.41C122.47 55.69 122.824 55.83 123.264 55.83C123.69 55.83 124.04 55.6867 124.314 55.4C124.594 55.1067 124.734 54.7167 124.734 54.23C124.734 53.7367 124.594 53.3467 124.314 53.06C124.04 52.7667 123.69 52.62 123.264 52.62Z" fill="#0E1626"/>
<defs>
<filter id="filter0_d_7_551" x="0" y="0" width="190" height="120" filterUnits="userSpaceOnUse" color-interpolation-filters="sRGB">
<feFlood flood-opacity="0" result="BackgroundImageFix"/>
<feColorMatrix in="SourceAlpha" type="matrix" values="0 0 0 0 0 0 0 0 0 0 0 0 0 0 0 0 0 0 127 0" result="hardAlpha"/>
<feOffset dy="12"/>
<feGaussianBlur stdDeviation="15"/>
<feComposite in2="hardAlpha" operator="out"/>
<feColorMatrix type="matrix" values="0 0 0 0 0.898438 0 0 0 0 0.914062 0 0 0 0 0.9375 0 0 0 1 0"/>
<feBlend mode="normal" in2="BackgroundImageFix" result="effect1_dropShadow_7_551"/>
<feBlend mode="normal" in="SourceGraphic" in2="effect1_dropShadow_7_551" result="shape"/>
</filter>
<clipPath id="clip0_7_551">
<rect width="18" height="18" fill="white" transform="translate(55 39)"/>
</clipPath>
</defs>
</svg>
